<svg width="1400" height="420" viewBox="0 0 1400 420" fill="none" xmlns="http://www.w3.org/2000/svg">
<defs><linearGradient id="bg" x1="0" y1="0" x2="1400" y2="420"><stop stop-color="#111827"/><stop offset="0.48" stop-color="#312E81"/><stop offset="1" stop-color="#7C3AED"/></linearGradient><radialGradient id="g" cx="0" cy="0" r="1" gradientUnits="userSpaceOnUse" gradientTransform="translate(1070 120) rotate(140) scale(520 300)"><stop stop-color="#34D399" stop-opacity="0.62"/><stop offset="1" stop-color="#34D399" stop-opacity="0"/></radialGradient></defs>
<rect width="1400" height="420" rx="34" fill="url(#bg)"/><rect width="1400" height="420" rx="34" fill="url(#g)"/>
<g opacity="0.24" stroke="#EDE9FE" stroke-width="2"><path d="M900 75 C975 40 1055 70 1115 132 C1170 190 1245 188 1310 145"/><path d="M900 185 C980 148 1050 172 1115 230 C1170 282 1250 270 1310 228"/><path d="M900 295 C985 255 1065 282 1130 340 C1180 382 1250 360 1310 326"/></g>
<g opacity="0.9"><circle cx="925" cy="82" r="7" fill="#34D399"/><circle cx="1048" cy="70" r="7" fill="#34D399"/><circle cx="1110" cy="135" r="7" fill="#34D399"/><circle cx="1210" cy="180" r="7" fill="#34D399"/><circle cx="910" cy="185" r="7" fill="#34D399"/><circle cx="1040" cy="170" r="7" fill="#34D399"/><circle cx="1130" cy="245" r="7" fill="#34D399"/><circle cx="1265" cy="250" r="7" fill="#34D399"/><circle cx="925" cy="292" r="7" fill="#34D399"/><circle cx="1055" cy="280" r="7" fill="#34D399"/><circle cx="1150" cy="345" r="7" fill="#34D399"/><circle cx="1280" cy="338" r="7" fill="#34D399"/></g>
<g transform="translate(86 84)"><path d="M0 120 C55 120 50 55 93 55 C135 55 120 185 170 185 C215 185 210 120 260 120" stroke="#34D399" stroke-width="10" stroke-linecap="round" fill="none"/><path d="M35 120 L62 120 L77 90 L101 165 L126 120 L260 120" stroke="#FFFFFF" stroke-width="5" stroke-linecap="round" stroke-linejoin="round" fill="none" opacity="0.95"/><circle cx="305" cy="120" r="56" stroke="#A78BFA" stroke-width="8" fill="none"/><path d="M305 74 V166 M259 120 H351" stroke="#FFFFFF" stroke-width="8" stroke-linecap="round"/></g>
<text x="90" y="285" fill="#FFFFFF" font-family="Inter, Arial, sans-serif" font-size="56" font-weight="800">AI in Digital Medicine</text>
<text x="92" y="333" fill="#D1FAE5" font-family="Inter, Arial, sans-serif" font-size="24" font-weight="500">Educational Python templates · Synthetic medical data · Clinical interpretation</text>
<text x="92" y="365" fill="#DDD6FE" font-family="Inter, Arial, sans-serif" font-size="18">ECG · Segmentation · NLP/RAG · EEG/BCI · Molecular screening</text>
</svg>